<svg width="17" height="17" viewBox="0 0 17 17" fill="none" xmlns="http://www.w3.org/2000/svg">
<path d="M1.85269 6.71015C1.55257 6.74574 1.43205 7.11669 1.65393 7.32188L4.79801 10.2297C4.88845 10.3133 4.92861 10.4381 4.9046 10.5589L4.07015 14.7588C4.01125 15.0552 4.3273 15.2844 4.59102 15.1367L8.32811 13.0454C8.43559 12.9852 8.56616 12.9849 8.67364 13.0451L12.4103 15.1373C12.6741 15.2849 12.9895 15.0552 12.9306 14.7588L12.0963 10.5586C12.0723 10.4378 12.1126 10.3133 12.203 10.2297L15.3467 7.32199C15.5685 7.1168 15.4484 6.74574 15.1482 6.71015L10.8955 6.20588C10.7732 6.19138 10.6676 6.11436 10.616 6.00251L8.82235 2.11394C8.69576 1.83951 8.30562 1.83956 8.17904 2.11399L6.38538 6.00259C6.33379 6.11444 6.22754 6.19125 6.10522 6.20576L1.85269 6.71015Z" fill="#603013" stroke="#603013" stroke-width="2" stroke-linecap="round" stroke-linejoin="round"/>
</svg>
