<svg width="46" height="46" viewBox="0 0 46 46" fill="none" xmlns="http://www.w3.org/2000/svg">
<g clip-path="url(#clip0_85_208)">
<path d="M35.5536 24.4384C35.6183 31.3997 41.6605 33.7162 41.7274 33.7457C41.6763 33.909 40.762 37.0469 38.5441 40.2881C36.6267 43.0904 34.637 45.8823 31.5023 45.9401C28.4223 45.9969 27.4318 44.1137 23.9104 44.1137C20.3901 44.1137 19.2897 45.8824 16.374 45.997C13.3483 46.1115 11.0442 42.9668 9.1111 40.1748C5.16085 34.4638 2.14204 24.0368 6.19554 16.9984C8.20923 13.5031 11.8078 11.2897 15.7138 11.233C18.685 11.1763 21.4893 13.2319 23.3057 13.2319C25.121 13.2319 28.5289 10.7599 32.1116 11.1229C33.6114 11.1854 37.8215 11.7288 40.5248 15.6858C40.307 15.8209 35.5014 18.6185 35.5536 24.4384ZM29.765 7.34459C31.3713 5.40014 32.4525 2.6933 32.1576 0C29.8421 0.093062 27.0422 1.54296 25.3814 3.48634C23.8929 5.20729 22.5894 7.96177 22.9411 10.6018C25.522 10.8014 28.1585 9.29027 29.765 7.34459Z" fill="#603013"/>
</g>
<defs>
<clipPath id="clip0_85_208">
<rect width="46" height="46" fill="white"/>
</clipPath>
</defs>
</svg>
