<svg width="43" height="43" viewBox="0 0 43 43" fill="none" xmlns="http://www.w3.org/2000/svg">
<g clip-path="url(#clip0_85_199)">
<path d="M42.4876 21.9023C42.4876 20.1406 42.3447 18.855 42.0353 17.5219H21.9185V25.4732H33.7266C33.4886 27.4493 32.2031 30.4251 29.3462 32.4248L29.3061 32.691L35.6667 37.6184L36.1074 37.6624C40.1545 33.9247 42.4876 28.4253 42.4876 21.9023Z" fill="#603013"/>
<path d="M21.9185 42.8523C27.7035 42.8523 32.56 40.9477 36.1074 37.6625L29.3462 32.4248C27.5369 33.6866 25.1086 34.5674 21.9185 34.5674C16.2525 34.5674 11.4436 30.8299 9.72933 25.6638L9.47806 25.6852L2.86426 30.8036L2.77777 31.0441C6.30115 38.0432 13.5384 42.8523 21.9185 42.8523Z" fill="#603013"/>
<path d="M9.72933 25.6638C9.27701 24.3306 9.01523 22.9021 9.01523 21.4261C9.01523 19.95 9.27701 18.5217 9.70553 17.1885L9.69355 16.9046L2.99687 11.7039L2.77777 11.8081C1.32562 14.7125 0.492371 17.9741 0.492371 21.4261C0.492371 24.8781 1.32562 28.1395 2.77777 31.044L9.72933 25.6638Z" fill="#603013"/>
<path d="M21.9185 8.28472C25.9418 8.28472 28.6557 10.0226 30.2032 11.4749L36.2502 5.5708C32.5364 2.11882 27.7035 0 21.9185 0C13.5384 0 6.30115 4.80894 2.77777 11.8081L9.70553 17.1885C11.4436 12.0224 16.2525 8.28472 21.9185 8.28472Z" fill="#603013"/>
</g>
<defs>
<clipPath id="clip0_85_199">
<rect width="43" height="43" fill="white"/>
</clipPath>
</defs>
</svg>
