<svg width="41" height="41" viewBox="0 0 41 41" fill="none" xmlns="http://www.w3.org/2000/svg">
<circle cx="20.5" cy="20.5" r="20.5" fill="#A57F5A"/>
<path d="M10 31H18.6791M18.6791 31H18.8209M18.6791 31C18.7027 31.0002 18.7263 31.0003 18.75 31.0003C18.7737 31.0003 18.7973 31.0002 18.8209 31M18.6791 31C13.8792 30.9619 10 27.0586 10 22.2497V17.1536C10 16.5163 10.5163 16 11.1536 16H26.3459C26.9831 16 27.5 16.5163 27.5 17.1536V17.25M18.8209 31H27.5M18.8209 31C23.6208 30.9619 27.5 27.0586 27.5 22.2497M27.5 17.25H29.375C31.1009 17.25 32.5 18.6491 32.5 20.375C32.5 22.1009 31.1009 23.5 29.375 23.5H27.5V22.2497M27.5 17.25V22.2497M23.75 9.75L22.5 12.25M20 9.75L18.75 12.25M16.25 9.75L15 12.25" stroke="white" stroke-width="2" stroke-linecap="round" stroke-linejoin="round"/>
</svg>
