<svg width="18" height="14" viewBox="0 0 18 14" fill="none" xmlns="http://www.w3.org/2000/svg">
<path d="M6.125 10.8889H9.625C10.7853 10.8889 11.8981 10.4792 12.7186 9.74986C13.5391 9.02055 14 8.0314 14 7V6.22222H14.875C15.5712 6.22222 16.2389 5.97639 16.7312 5.53881C17.2234 5.10122 17.5 4.50773 17.5 3.88889C17.5 3.27005 17.2234 2.67656 16.7312 2.23897C16.2389 1.80139 15.5712 1.55556 14.875 1.55556H14V0.777778C14 0.571498 13.9078 0.373667 13.7437 0.227806C13.5796 0.0819442 13.3571 0 13.125 0H2.625C2.39294 0 2.17038 0.0819442 2.00628 0.227806C1.84219 0.373667 1.75 0.571498 1.75 0.777778V7C1.75 8.0314 2.21094 9.02055 3.03141 9.74986C3.85188 10.4792 4.96468 10.8889 6.125 10.8889ZM14 3.11111H14.875C15.1071 3.11111 15.3296 3.19306 15.4937 3.33892C15.6578 3.48478 15.75 3.68261 15.75 3.88889C15.75 4.09517 15.6578 4.293 15.4937 4.43886C15.3296 4.58472 15.1071 4.66667 14.875 4.66667H14V3.11111ZM3.5 1.55556H12.25V7C12.25 7.61884 11.9734 8.21233 11.4812 8.64992C10.9889 9.0875 10.3212 9.33333 9.625 9.33333H6.125C5.42881 9.33333 4.76113 9.0875 4.26884 8.64992C3.77656 8.21233 3.5 7.61884 3.5 7V1.55556ZM16.625 12.4444H0.875C0.642936 12.4444 0.420376 12.5264 0.256282 12.6722C0.0921872 12.8181 0 13.0159 0 13.2222C0 13.4285 0.0921872 13.6263 0.256282 13.7722C0.420376 13.9181 0.642936 14 0.875 14H16.625C16.8571 14 17.0796 13.9181 17.2437 13.7722C17.4078 13.6263 17.5 13.4285 17.5 13.2222C17.5 13.0159 17.4078 12.8181 17.2437 12.6722C17.0796 12.5264 16.8571 12.4444 16.625 12.4444Z" fill="#603013"/>
</svg>
