<svg width="24" height="24" viewBox="0 0 24 24" fill="none" xmlns="http://www.w3.org/2000/svg">
<g clip-path="url(#clip0_91_317)">
<mask id="mask0_91_317" style="mask-type:luminance" maskUnits="userSpaceOnUse" x="3" y="1" width="18" height="22">
<path d="M3.52399 1.87952H20.416V22.1355H3.52399V1.87952Z" fill="white"/>
</mask>
<g mask="url(#mask0_91_317)">
<path d="M11.9835 1.87952C7.32972 1.87952 3.55347 5.65627 3.55347 10.3193C3.55347 12.6488 4.49672 14.7585 6.02322 16.2865L11.9835 22.1355L17.9452 16.2853C19.4715 14.7588 20.415 12.649 20.4132 10.3178C20.4132 5.66027 16.6395 1.87952 11.9835 1.87952ZM16.754 15.09L11.9835 19.7715L7.20372 15.08C5.94072 13.8175 5.23922 12.1223 5.23922 10.3195C5.23922 6.59652 8.26472 3.56752 11.9835 3.56752C13.7845 3.56752 15.4787 4.27077 16.7522 5.54577C18.026 6.82177 18.7275 8.51627 18.7275 10.318C18.729 12.1223 18.0275 13.816 16.754 15.09Z" fill="#603013"/>
</g>
<path d="M12.405 6.94348H9.87598V14.5395H11.5617V12.0075H12.405C13.8012 12.0075 14.934 10.8732 14.934 9.47548C14.934 8.07673 13.8012 6.94348 12.405 6.94348ZM12.405 10.3192H11.5617V8.63123H12.405C12.87 8.63148 13.248 9.00898 13.248 9.47548C13.248 9.94098 12.87 10.3192 12.405 10.3192Z" fill="#603013"/>
</g>
<defs>
<clipPath id="clip0_91_317">
<rect width="24" height="24" fill="white"/>
</clipPath>
</defs>
</svg> 