<svg width="31" height="31" viewBox="0 0 31 31" fill="none" xmlns="http://www.w3.org/2000/svg">
<path d="M11.6251 7.75L15.5001 3.875M15.5001 3.875L19.3751 7.75M15.5001 3.875V16.7917M9.04205 12.9167C7.83836 12.9167 7.23652 12.9167 6.76178 13.1133C6.12879 13.3755 5.62559 13.8787 5.36339 14.5117C5.16675 14.9864 5.16675 15.588 5.16675 16.7917V22.9917C5.16675 24.4385 5.16675 25.1614 5.44831 25.714C5.69599 26.2001 6.0909 26.596 6.57699 26.8437C7.12905 27.125 7.85212 27.125 9.29609 27.125H21.7047C23.1487 27.125 23.8707 27.125 24.4228 26.8437C24.9088 26.596 25.3045 26.2001 25.5521 25.714C25.8334 25.1619 25.8334 24.4396 25.8334 22.9957V16.7917C25.8334 15.588 25.8333 14.9864 25.6366 14.5117C25.3744 13.8787 24.8717 13.3755 24.2387 13.1133C23.7639 12.9167 23.1621 12.9167 21.9584 12.9167" stroke="white" stroke-width="2" stroke-linecap="round" stroke-linejoin="round"/>
</svg>
